<?xml version="1.0" encoding="UTF-8" standalone="no"?>
<!DOCTYPE svg PUBLIC "-//W3C//DTD SVG 1.1//EN"
 "http://www.w3.org/Graphics/SVG/1.1/DTD/svg11.dtd">
<!-- Generated by graphviz version 2.44.0 (0)
 -->
<!-- Title: snakemake_dag Pages: 1 -->
<svg width="892pt" height="332pt"
 viewBox="0.00 0.00 892.00 332.00" xmlns="http://www.w3.org/2000/svg" xmlns:xlink="http://www.w3.org/1999/xlink">
<g id="graph0" class="graph" transform="scale(1 1) rotate(0) translate(4 328)">
<title>snakemake_dag</title>
<polygon fill="white" stroke="transparent" points="-4,4 -4,-328 888,-328 888,4 -4,4"/>
<!-- 0 -->
<g id="node1" class="node">
<title>0</title>
<path fill="none" stroke="#d85656" stroke-width="2" d="M455.5,-36C455.5,-36 425.5,-36 425.5,-36 419.5,-36 413.5,-30 413.5,-24 413.5,-24 413.5,-12 413.5,-12 413.5,-6 419.5,0 425.5,0 425.5,0 455.5,0 455.5,0 461.5,0 467.5,-6 467.5,-12 467.5,-12 467.5,-24 467.5,-24 467.5,-30 461.5,-36 455.5,-36"/>
<text text-anchor="middle" x="440.5" y="-15.5" font-family="sans" font-size="10.00">all</text>
</g>
<!-- 1 -->
<g id="node2" class="node">
<title>1</title>
<path fill="none" stroke="#56a9d8" stroke-width="2" d="M203,-108C203,-108 140,-108 140,-108 134,-108 128,-102 128,-96 128,-96 128,-84 128,-84 128,-78 134,-72 140,-72 140,-72 203,-72 203,-72 209,-72 215,-78 215,-84 215,-84 215,-96 215,-96 215,-102 209,-108 203,-108"/>
<text text-anchor="middle" x="171.5" y="-87.5" font-family="sans" font-size="10.00">sample_report</text>
</g>
<!-- 1&#45;&gt;0 -->
<g id="edge1" class="edge">
<title>1&#45;&gt;0</title>
<path fill="none" stroke="grey" stroke-width="2" d="M215.02,-77.68C267.35,-64.06 354.29,-41.43 403.52,-28.62"/>
<polygon fill="grey" stroke="grey" stroke-width="2" points="404.63,-31.95 413.43,-26.04 402.87,-25.18 404.63,-31.95"/>
</g>
<!-- 2 -->
<g id="node3" class="node">
<title>2</title>
<path fill="none" stroke="#afd856" stroke-width="2" d="M242.5,-180C242.5,-180 174.5,-180 174.5,-180 168.5,-180 162.5,-174 162.5,-168 162.5,-168 162.5,-156 162.5,-156 162.5,-150 168.5,-144 174.5,-144 174.5,-144 242.5,-144 242.5,-144 248.5,-144 254.5,-150 254.5,-156 254.5,-156 254.5,-168 254.5,-168 254.5,-174 248.5,-180 242.5,-180"/>
<text text-anchor="middle" x="208.5" y="-159.5" font-family="sans" font-size="10.00">run_ccmetagen</text>
</g>
<!-- 2&#45;&gt;1 -->
<g id="edge4" class="edge">
<title>2&#45;&gt;1</title>
<path fill="none" stroke="grey" stroke-width="2" d="M199.35,-143.7C195.1,-135.64 189.94,-125.89 185.23,-116.98"/>
<polygon fill="grey" stroke="grey" stroke-width="2" points="188.31,-115.31 180.54,-108.1 182.12,-118.58 188.31,-115.31"/>
</g>
<!-- 3 -->
<g id="node4" class="node">
<title>3</title>
<path fill="none" stroke="#59d856" stroke-width="2" d="M268,-252C268,-252 221,-252 221,-252 215,-252 209,-246 209,-240 209,-240 209,-228 209,-228 209,-222 215,-216 221,-216 221,-216 268,-216 268,-216 274,-216 280,-222 280,-228 280,-228 280,-240 280,-240 280,-246 274,-252 268,-252"/>
<text text-anchor="middle" x="244.5" y="-237" font-family="sans" font-size="10.00">run_kma</text>
<text text-anchor="middle" x="244.5" y="-226" font-family="sans" font-size="10.00">sample: S1</text>
</g>
<!-- 3&#45;&gt;2 -->
<g id="edge9" class="edge">
<title>3&#45;&gt;2</title>
<path fill="none" stroke="grey" stroke-width="2" d="M235.6,-215.7C231.5,-207.73 226.55,-198.1 222.01,-189.26"/>
<polygon fill="grey" stroke="grey" stroke-width="2" points="224.98,-187.4 217.3,-180.1 218.76,-190.6 224.98,-187.4"/>
</g>
<!-- 4 -->
<g id="node5" class="node">
<title>4</title>
<path fill="none" stroke="#d8ac56" stroke-width="2" d="M477.5,-324C477.5,-324 403.5,-324 403.5,-324 397.5,-324 391.5,-318 391.5,-312 391.5,-312 391.5,-300 391.5,-300 391.5,-294 397.5,-288 403.5,-288 403.5,-288 477.5,-288 477.5,-288 483.5,-288 489.5,-294 489.5,-300 489.5,-300 489.5,-312 489.5,-312 489.5,-318 483.5,-324 477.5,-324"/>
<text text-anchor="middle" x="440.5" y="-303.5" font-family="sans" font-size="10.00">prepare_kma_db</text>
</g>
<!-- 4&#45;&gt;3 -->
<g id="edge10" class="edge">
<title>4&#45;&gt;3</title>
<path fill="none" stroke="grey" stroke-width="2" d="M392.8,-287.97C361.41,-276.75 320.58,-262.17 289.7,-251.14"/>
<polygon fill="grey" stroke="grey" stroke-width="2" points="290.65,-247.77 280.06,-247.7 288.3,-254.36 290.65,-247.77"/>
</g>
<!-- 16 -->
<g id="node17" class="node">
<title>16</title>
<path fill="none" stroke="#59d856" stroke-width="2" d="M464,-252C464,-252 417,-252 417,-252 411,-252 405,-246 405,-240 405,-240 405,-228 405,-228 405,-222 411,-216 417,-216 417,-216 464,-216 464,-216 470,-216 476,-222 476,-228 476,-228 476,-240 476,-240 476,-246 470,-252 464,-252"/>
<text text-anchor="middle" x="440.5" y="-237" font-family="sans" font-size="10.00">run_kma</text>
<text text-anchor="middle" x="440.5" y="-226" font-family="sans" font-size="10.00">sample: S2</text>
</g>
<!-- 4&#45;&gt;16 -->
<g id="edge24" class="edge">
<title>4&#45;&gt;16</title>
<path fill="none" stroke="grey" stroke-width="2" d="M440.5,-287.7C440.5,-279.98 440.5,-270.71 440.5,-262.11"/>
<polygon fill="grey" stroke="grey" stroke-width="2" points="444,-262.1 440.5,-252.1 437,-262.1 444,-262.1"/>
</g>
<!-- 21 -->
<g id="node22" class="node">
<title>21</title>
<path fill="none" stroke="#59d856" stroke-width="2" d="M658,-252C658,-252 611,-252 611,-252 605,-252 599,-246 599,-240 599,-240 599,-228 599,-228 599,-222 605,-216 611,-216 611,-216 658,-216 658,-216 664,-216 670,-222 670,-228 670,-228 670,-240 670,-240 670,-246 664,-252 658,-252"/>
<text text-anchor="middle" x="634.5" y="-237" font-family="sans" font-size="10.00">run_kma</text>
<text text-anchor="middle" x="634.5" y="-226" font-family="sans" font-size="10.00">sample: S3</text>
</g>
<!-- 4&#45;&gt;21 -->
<g id="edge32" class="edge">
<title>4&#45;&gt;21</title>
<path fill="none" stroke="grey" stroke-width="2" d="M488.53,-287.94C517.51,-277.61 555.16,-264.13 588.5,-252 588.82,-251.89 589.13,-251.77 589.45,-251.65"/>
<polygon fill="grey" stroke="grey" stroke-width="2" points="590.66,-254.94 598.85,-248.21 588.26,-248.36 590.66,-254.94"/>
</g>
<!-- 5 -->
<g id="node6" class="node">
<title>5</title>
<path fill="none" stroke="#80d856" stroke-width="2" d="M169.5,-252C169.5,-252 125.5,-252 125.5,-252 119.5,-252 113.5,-246 113.5,-240 113.5,-240 113.5,-228 113.5,-228 113.5,-222 119.5,-216 125.5,-216 125.5,-216 169.5,-216 169.5,-216 175.5,-216 181.5,-222 181.5,-228 181.5,-228 181.5,-240 181.5,-240 181.5,-246 175.5,-252 169.5,-252"/>
<text text-anchor="middle" x="147.5" y="-231.5" font-family="sans" font-size="10.00">run_fastqc</text>
</g>
<!-- 5&#45;&gt;1 -->
<g id="edge5" class="edge">
<title>5&#45;&gt;1</title>
<path fill="none" stroke="grey" stroke-width="2" d="M147.34,-215.76C147.48,-197.71 148.58,-168.6 153.5,-144 155.23,-135.33 158.01,-126.13 160.87,-117.86"/>
<polygon fill="grey" stroke="grey" stroke-width="2" points="164.2,-118.95 164.33,-108.35 157.62,-116.55 164.2,-118.95"/>
</g>
<!-- 7 -->
<g id="node8" class="node">
<title>7</title>
<path fill="none" stroke="#56d8d8" stroke-width="2" d="M566.5,-180C566.5,-180 516.5,-180 516.5,-180 510.5,-180 504.5,-174 504.5,-168 504.5,-168 504.5,-156 504.5,-156 504.5,-150 510.5,-144 516.5,-144 516.5,-144 566.5,-144 566.5,-144 572.5,-144 578.5,-150 578.5,-156 578.5,-156 578.5,-168 578.5,-168 578.5,-174 572.5,-180 566.5,-180"/>
<text text-anchor="middle" x="541.5" y="-159.5" font-family="sans" font-size="10.00">run_multiqc</text>
</g>
<!-- 5&#45;&gt;7 -->
<g id="edge12" class="edge">
<title>5&#45;&gt;7</title>
<path fill="none" stroke="grey" stroke-width="2" d="M181.74,-220.98C187.93,-219.1 194.36,-217.35 200.5,-216 326.37,-188.39 365.24,-209.99 494.45,-179.92"/>
<polygon fill="grey" stroke="grey" stroke-width="2" points="495.41,-183.29 504.32,-177.56 493.78,-176.48 495.41,-183.29"/>
</g>
<!-- 6 -->
<g id="node7" class="node">
<title>6</title>
<path fill="none" stroke="#5682d8" stroke-width="2" d="M173,-324C173,-324 122,-324 122,-324 116,-324 110,-318 110,-312 110,-312 110,-300 110,-300 110,-294 116,-288 122,-288 122,-288 173,-288 173,-288 179,-288 185,-294 185,-300 185,-300 185,-312 185,-312 185,-318 179,-324 173,-324"/>
<text text-anchor="middle" x="147.5" y="-309" font-family="sans" font-size="10.00">unzip_reads</text>
<text text-anchor="middle" x="147.5" y="-298" font-family="sans" font-size="10.00">sample: S1</text>
</g>
<!-- 6&#45;&gt;5 -->
<g id="edge11" class="edge">
<title>6&#45;&gt;5</title>
<path fill="none" stroke="grey" stroke-width="2" d="M147.5,-287.7C147.5,-279.98 147.5,-270.71 147.5,-262.11"/>
<polygon fill="grey" stroke="grey" stroke-width="2" points="151,-262.1 147.5,-252.1 144,-262.1 151,-262.1"/>
</g>
<!-- 7&#45;&gt;1 -->
<g id="edge6" class="edge">
<title>7&#45;&gt;1</title>
<path fill="none" stroke="grey" stroke-width="2" d="M504.29,-146.57C501.33,-145.63 498.38,-144.76 495.5,-144 401.86,-119.28 289.8,-104.03 225.01,-96.56"/>
<polygon fill="grey" stroke="grey" stroke-width="2" points="225.36,-93.08 215.03,-95.43 224.57,-100.04 225.36,-93.08"/>
</g>
<!-- 14 -->
<g id="node15" class="node">
<title>14</title>
<path fill="none" stroke="#56a9d8" stroke-width="2" d="M472,-108C472,-108 409,-108 409,-108 403,-108 397,-102 397,-96 397,-96 397,-84 397,-84 397,-78 403,-72 409,-72 409,-72 472,-72 472,-72 478,-72 484,-78 484,-84 484,-84 484,-96 484,-96 484,-102 478,-108 472,-108"/>
<text text-anchor="middle" x="440.5" y="-87.5" font-family="sans" font-size="10.00">sample_report</text>
</g>
<!-- 7&#45;&gt;14 -->
<g id="edge20" class="edge">
<title>7&#45;&gt;14</title>
<path fill="none" stroke="grey" stroke-width="2" d="M516.79,-143.88C503.83,-134.89 487.77,-123.76 473.73,-114.03"/>
<polygon fill="grey" stroke="grey" stroke-width="2" points="475.52,-111.01 465.3,-108.19 471.53,-116.76 475.52,-111.01"/>
</g>
<!-- 19 -->
<g id="node20" class="node">
<title>19</title>
<path fill="none" stroke="#56a9d8" stroke-width="2" d="M749,-108C749,-108 686,-108 686,-108 680,-108 674,-102 674,-96 674,-96 674,-84 674,-84 674,-78 680,-72 686,-72 686,-72 749,-72 749,-72 755,-72 761,-78 761,-84 761,-84 761,-96 761,-96 761,-102 755,-108 749,-108"/>
<text text-anchor="middle" x="717.5" y="-87.5" font-family="sans" font-size="10.00">sample_report</text>
</g>
<!-- 7&#45;&gt;19 -->
<g id="edge28" class="edge">
<title>7&#45;&gt;19</title>
<path fill="none" stroke="grey" stroke-width="2" d="M578.83,-146.15C603.92,-136.17 637.35,-122.88 665.1,-111.84"/>
<polygon fill="grey" stroke="grey" stroke-width="2" points="666.66,-114.99 674.66,-108.04 664.07,-108.48 666.66,-114.99"/>
</g>
<!-- 8 -->
<g id="node9" class="node">
<title>8</title>
<path fill="none" stroke="#80d856" stroke-width="2" d="M567.5,-252C567.5,-252 523.5,-252 523.5,-252 517.5,-252 511.5,-246 511.5,-240 511.5,-240 511.5,-228 511.5,-228 511.5,-222 517.5,-216 523.5,-216 523.5,-216 567.5,-216 567.5,-216 573.5,-216 579.5,-222 579.5,-228 579.5,-228 579.5,-240 579.5,-240 579.5,-246 573.5,-252 567.5,-252"/>
<text text-anchor="middle" x="545.5" y="-231.5" font-family="sans" font-size="10.00">run_fastqc</text>
</g>
<!-- 8&#45;&gt;7 -->
<g id="edge13" class="edge">
<title>8&#45;&gt;7</title>
<path fill="none" stroke="grey" stroke-width="2" d="M544.51,-215.7C544.07,-207.98 543.54,-198.71 543.05,-190.11"/>
<polygon fill="grey" stroke="grey" stroke-width="2" points="546.54,-189.89 542.48,-180.1 539.55,-190.29 546.54,-189.89"/>
</g>
<!-- 8&#45;&gt;14 -->
<g id="edge19" class="edge">
<title>8&#45;&gt;14</title>
<path fill="none" stroke="grey" stroke-width="2" d="M564.11,-215.66C581.84,-197.01 603.61,-166.93 587.5,-144 566.51,-114.12 526.97,-101.01 494.18,-95.3"/>
<polygon fill="grey" stroke="grey" stroke-width="2" points="494.66,-91.83 484.24,-93.75 493.59,-98.75 494.66,-91.83"/>
</g>
<!-- 9 -->
<g id="node10" class="node">
<title>9</title>
<path fill="none" stroke="#5682d8" stroke-width="2" d="M571,-324C571,-324 520,-324 520,-324 514,-324 508,-318 508,-312 508,-312 508,-300 508,-300 508,-294 514,-288 520,-288 520,-288 571,-288 571,-288 577,-288 583,-294 583,-300 583,-300 583,-312 583,-312 583,-318 577,-324 571,-324"/>
<text text-anchor="middle" x="545.5" y="-309" font-family="sans" font-size="10.00">unzip_reads</text>
<text text-anchor="middle" x="545.5" y="-298" font-family="sans" font-size="10.00">sample: S2</text>
</g>
<!-- 9&#45;&gt;8 -->
<g id="edge15" class="edge">
<title>9&#45;&gt;8</title>
<path fill="none" stroke="grey" stroke-width="2" d="M545.5,-287.7C545.5,-279.98 545.5,-270.71 545.5,-262.11"/>
<polygon fill="grey" stroke="grey" stroke-width="2" points="549,-262.1 545.5,-252.1 542,-262.1 549,-262.1"/>
</g>
<!-- 10 -->
<g id="node11" class="node">
<title>10</title>
<path fill="none" stroke="#80d856" stroke-width="2" d="M745.5,-252C745.5,-252 701.5,-252 701.5,-252 695.5,-252 689.5,-246 689.5,-240 689.5,-240 689.5,-228 689.5,-228 689.5,-222 695.5,-216 701.5,-216 701.5,-216 745.5,-216 745.5,-216 751.5,-216 757.5,-222 757.5,-228 757.5,-228 757.5,-240 757.5,-240 757.5,-246 751.5,-252 745.5,-252"/>
<text text-anchor="middle" x="723.5" y="-231.5" font-family="sans" font-size="10.00">run_fastqc</text>
</g>
<!-- 10&#45;&gt;7 -->
<g id="edge14" class="edge">
<title>10&#45;&gt;7</title>
<path fill="none" stroke="grey" stroke-width="2" d="M689.39,-219.81C686.05,-218.52 682.71,-217.24 679.5,-216 649.11,-204.29 614.93,-191.17 588.19,-180.91"/>
<polygon fill="grey" stroke="grey" stroke-width="2" points="589.29,-177.58 578.7,-177.26 586.78,-184.11 589.29,-177.58"/>
</g>
<!-- 10&#45;&gt;19 -->
<g id="edge27" class="edge">
<title>10&#45;&gt;19</title>
<path fill="none" stroke="grey" stroke-width="2" d="M728.83,-215.89C733.72,-197.94 739.62,-168.92 735.5,-144 734.06,-135.28 731.37,-126.06 728.5,-117.8"/>
<polygon fill="grey" stroke="grey" stroke-width="2" points="731.73,-116.46 724.98,-108.3 725.17,-118.89 731.73,-116.46"/>
</g>
<!-- 11 -->
<g id="node12" class="node">
<title>11</title>
<path fill="none" stroke="#5682d8" stroke-width="2" d="M749,-324C749,-324 698,-324 698,-324 692,-324 686,-318 686,-312 686,-312 686,-300 686,-300 686,-294 692,-288 698,-288 698,-288 749,-288 749,-288 755,-288 761,-294 761,-300 761,-300 761,-312 761,-312 761,-318 755,-324 749,-324"/>
<text text-anchor="middle" x="723.5" y="-309" font-family="sans" font-size="10.00">unzip_reads</text>
<text text-anchor="middle" x="723.5" y="-298" font-family="sans" font-size="10.00">sample: S3</text>
</g>
<!-- 11&#45;&gt;10 -->
<g id="edge16" class="edge">
<title>11&#45;&gt;10</title>
<path fill="none" stroke="grey" stroke-width="2" d="M723.5,-287.7C723.5,-279.98 723.5,-270.71 723.5,-262.11"/>
<polygon fill="grey" stroke="grey" stroke-width="2" points="727,-262.1 723.5,-252.1 720,-262.1 727,-262.1"/>
</g>
<!-- 12 -->
<g id="node13" class="node">
<title>12</title>
<path fill="none" stroke="#56d882" stroke-width="2" d="M65,-252C65,-252 12,-252 12,-252 6,-252 0,-246 0,-240 0,-240 0,-228 0,-228 0,-222 6,-216 12,-216 12,-216 65,-216 65,-216 71,-216 77,-222 77,-228 77,-228 77,-240 77,-240 77,-246 71,-252 65,-252"/>
<text text-anchor="middle" x="38.5" y="-237" font-family="sans" font-size="10.00">run_kraken2</text>
<text text-anchor="middle" x="38.5" y="-226" font-family="sans" font-size="10.00">sample: S1</text>
</g>
<!-- 12&#45;&gt;1 -->
<g id="edge7" class="edge">
<title>12&#45;&gt;1</title>
<path fill="none" stroke="grey" stroke-width="2" d="M54.54,-215.87C77.91,-190.92 121.44,-144.45 148.3,-115.77"/>
<polygon fill="grey" stroke="grey" stroke-width="2" points="151.12,-117.88 155.4,-108.19 146.01,-113.1 151.12,-117.88"/>
</g>
<!-- 13 -->
<g id="node14" class="node">
<title>13</title>
<path fill="none" stroke="#56d8a9" stroke-width="2" d="M56,-180C56,-180 15,-180 15,-180 9,-180 3,-174 3,-168 3,-168 3,-156 3,-156 3,-150 9,-144 15,-144 15,-144 56,-144 56,-144 62,-144 68,-150 68,-156 68,-156 68,-168 68,-168 68,-174 62,-180 56,-180"/>
<text text-anchor="middle" x="35.5" y="-159.5" font-family="sans" font-size="10.00">run_krona</text>
</g>
<!-- 12&#45;&gt;13 -->
<g id="edge17" class="edge">
<title>12&#45;&gt;13</title>
<path fill="none" stroke="grey" stroke-width="2" d="M37.76,-215.7C37.43,-207.98 37.03,-198.71 36.66,-190.11"/>
<polygon fill="grey" stroke="grey" stroke-width="2" points="40.16,-189.95 36.23,-180.1 33.16,-190.25 40.16,-189.95"/>
</g>
<!-- 13&#45;&gt;1 -->
<g id="edge8" class="edge">
<title>13&#45;&gt;1</title>
<path fill="none" stroke="grey" stroke-width="2" d="M68.08,-144.23C86.39,-134.81 109.47,-122.93 129.17,-112.79"/>
<polygon fill="grey" stroke="grey" stroke-width="2" points="130.96,-115.8 138.25,-108.12 127.75,-109.58 130.96,-115.8"/>
</g>
<!-- 14&#45;&gt;0 -->
<g id="edge2" class="edge">
<title>14&#45;&gt;0</title>
<path fill="none" stroke="grey" stroke-width="2" d="M440.5,-71.7C440.5,-63.98 440.5,-54.71 440.5,-46.11"/>
<polygon fill="grey" stroke="grey" stroke-width="2" points="444,-46.1 440.5,-36.1 437,-46.1 444,-46.1"/>
</g>
<!-- 15 -->
<g id="node16" class="node">
<title>15</title>
<path fill="none" stroke="#afd856" stroke-width="2" d="M474.5,-180C474.5,-180 406.5,-180 406.5,-180 400.5,-180 394.5,-174 394.5,-168 394.5,-168 394.5,-156 394.5,-156 394.5,-150 400.5,-144 406.5,-144 406.5,-144 474.5,-144 474.5,-144 480.5,-144 486.5,-150 486.5,-156 486.5,-156 486.5,-168 486.5,-168 486.5,-174 480.5,-180 474.5,-180"/>
<text text-anchor="middle" x="440.5" y="-159.5" font-family="sans" font-size="10.00">run_ccmetagen</text>
</g>
<!-- 15&#45;&gt;14 -->
<g id="edge18" class="edge">
<title>15&#45;&gt;14</title>
<path fill="none" stroke="grey" stroke-width="2" d="M440.5,-143.7C440.5,-135.98 440.5,-126.71 440.5,-118.11"/>
<polygon fill="grey" stroke="grey" stroke-width="2" points="444,-118.1 440.5,-108.1 437,-118.1 444,-118.1"/>
</g>
<!-- 16&#45;&gt;15 -->
<g id="edge23" class="edge">
<title>16&#45;&gt;15</title>
<path fill="none" stroke="grey" stroke-width="2" d="M440.5,-215.7C440.5,-207.98 440.5,-198.71 440.5,-190.11"/>
<polygon fill="grey" stroke="grey" stroke-width="2" points="444,-190.1 440.5,-180.1 437,-190.1 444,-190.1"/>
</g>
<!-- 17 -->
<g id="node18" class="node">
<title>17</title>
<path fill="none" stroke="#56d882" stroke-width="2" d="M368,-252C368,-252 315,-252 315,-252 309,-252 303,-246 303,-240 303,-240 303,-228 303,-228 303,-222 309,-216 315,-216 315,-216 368,-216 368,-216 374,-216 380,-222 380,-228 380,-228 380,-240 380,-240 380,-246 374,-252 368,-252"/>
<text text-anchor="middle" x="341.5" y="-237" font-family="sans" font-size="10.00">run_kraken2</text>
<text text-anchor="middle" x="341.5" y="-226" font-family="sans" font-size="10.00">sample: S2</text>
</g>
<!-- 17&#45;&gt;14 -->
<g id="edge21" class="edge">
<title>17&#45;&gt;14</title>
<path fill="none" stroke="grey" stroke-width="2" d="M324.24,-215.95C307.49,-197.28 286.74,-166.94 302.5,-144 321.37,-116.54 356.59,-103.3 386.73,-96.92"/>
<polygon fill="grey" stroke="grey" stroke-width="2" points="387.56,-100.33 396.72,-95.01 386.24,-93.45 387.56,-100.33"/>
</g>
<!-- 18 -->
<g id="node19" class="node">
<title>18</title>
<path fill="none" stroke="#56d8a9" stroke-width="2" d="M364,-180C364,-180 323,-180 323,-180 317,-180 311,-174 311,-168 311,-168 311,-156 311,-156 311,-150 317,-144 323,-144 323,-144 364,-144 364,-144 370,-144 376,-150 376,-156 376,-156 376,-168 376,-168 376,-174 370,-180 364,-180"/>
<text text-anchor="middle" x="343.5" y="-159.5" font-family="sans" font-size="10.00">run_krona</text>
</g>
<!-- 17&#45;&gt;18 -->
<g id="edge25" class="edge">
<title>17&#45;&gt;18</title>
<path fill="none" stroke="grey" stroke-width="2" d="M341.99,-215.7C342.21,-207.98 342.48,-198.71 342.73,-190.11"/>
<polygon fill="grey" stroke="grey" stroke-width="2" points="346.22,-190.2 343.01,-180.1 339.23,-190 346.22,-190.2"/>
</g>
<!-- 18&#45;&gt;14 -->
<g id="edge22" class="edge">
<title>18&#45;&gt;14</title>
<path fill="none" stroke="grey" stroke-width="2" d="M367.48,-143.7C379.81,-134.8 395.02,-123.82 408.35,-114.2"/>
<polygon fill="grey" stroke="grey" stroke-width="2" points="410.74,-116.79 416.8,-108.1 406.64,-111.12 410.74,-116.79"/>
</g>
<!-- 19&#45;&gt;0 -->
<g id="edge3" class="edge">
<title>19&#45;&gt;0</title>
<path fill="none" stroke="grey" stroke-width="2" d="M673.91,-77.99C619.89,-64.33 528.75,-41.3 477.81,-28.43"/>
<polygon fill="grey" stroke="grey" stroke-width="2" points="478.43,-24.98 467.88,-25.92 476.72,-31.76 478.43,-24.98"/>
</g>
<!-- 20 -->
<g id="node21" class="node">
<title>20</title>
<path fill="none" stroke="#afd856" stroke-width="2" d="M714.5,-180C714.5,-180 646.5,-180 646.5,-180 640.5,-180 634.5,-174 634.5,-168 634.5,-168 634.5,-156 634.5,-156 634.5,-150 640.5,-144 646.5,-144 646.5,-144 714.5,-144 714.5,-144 720.5,-144 726.5,-150 726.5,-156 726.5,-156 726.5,-168 726.5,-168 726.5,-174 720.5,-180 714.5,-180"/>
<text text-anchor="middle" x="680.5" y="-159.5" font-family="sans" font-size="10.00">run_ccmetagen</text>
</g>
<!-- 20&#45;&gt;19 -->
<g id="edge26" class="edge">
<title>20&#45;&gt;19</title>
<path fill="none" stroke="grey" stroke-width="2" d="M689.65,-143.7C693.9,-135.64 699.06,-125.89 703.77,-116.98"/>
<polygon fill="grey" stroke="grey" stroke-width="2" points="706.88,-118.58 708.46,-108.1 700.69,-115.31 706.88,-118.58"/>
</g>
<!-- 21&#45;&gt;20 -->
<g id="edge31" class="edge">
<title>21&#45;&gt;20</title>
<path fill="none" stroke="grey" stroke-width="2" d="M645.87,-215.7C651.22,-207.56 657.7,-197.69 663.61,-188.7"/>
<polygon fill="grey" stroke="grey" stroke-width="2" points="666.69,-190.38 669.26,-180.1 660.84,-186.54 666.69,-190.38"/>
</g>
<!-- 22 -->
<g id="node23" class="node">
<title>22</title>
<path fill="none" stroke="#56d882" stroke-width="2" d="M872,-252C872,-252 819,-252 819,-252 813,-252 807,-246 807,-240 807,-240 807,-228 807,-228 807,-222 813,-216 819,-216 819,-216 872,-216 872,-216 878,-216 884,-222 884,-228 884,-228 884,-240 884,-240 884,-246 878,-252 872,-252"/>
<text text-anchor="middle" x="845.5" y="-237" font-family="sans" font-size="10.00">run_kraken2</text>
<text text-anchor="middle" x="845.5" y="-226" font-family="sans" font-size="10.00">sample: S3</text>
</g>
<!-- 22&#45;&gt;19 -->
<g id="edge29" class="edge">
<title>22&#45;&gt;19</title>
<path fill="none" stroke="grey" stroke-width="2" d="M854.21,-215.98C862.68,-196.77 872.3,-165.42 857.5,-144 838.19,-116.05 802.1,-102.82 771.4,-96.57"/>
<polygon fill="grey" stroke="grey" stroke-width="2" points="771.69,-93.07 761.22,-94.71 770.43,-99.95 771.69,-93.07"/>
</g>
<!-- 23 -->
<g id="node24" class="node">
<title>23</title>
<path fill="none" stroke="#56d8a9" stroke-width="2" d="M836,-180C836,-180 795,-180 795,-180 789,-180 783,-174 783,-168 783,-168 783,-156 783,-156 783,-150 789,-144 795,-144 795,-144 836,-144 836,-144 842,-144 848,-150 848,-156 848,-156 848,-168 848,-168 848,-174 842,-180 836,-180"/>
<text text-anchor="middle" x="815.5" y="-159.5" font-family="sans" font-size="10.00">run_krona</text>
</g>
<!-- 22&#45;&gt;23 -->
<g id="edge33" class="edge">
<title>22&#45;&gt;23</title>
<path fill="none" stroke="grey" stroke-width="2" d="M838.08,-215.7C834.71,-207.81 830.63,-198.3 826.88,-189.55"/>
<polygon fill="grey" stroke="grey" stroke-width="2" points="829.99,-187.92 822.83,-180.1 823.55,-190.67 829.99,-187.92"/>
</g>
<!-- 23&#45;&gt;19 -->
<g id="edge30" class="edge">
<title>23&#45;&gt;19</title>
<path fill="none" stroke="grey" stroke-width="2" d="M791.53,-143.88C778.95,-134.89 763.37,-123.76 749.75,-114.03"/>
<polygon fill="grey" stroke="grey" stroke-width="2" points="751.74,-111.15 741.57,-108.19 747.67,-116.85 751.74,-111.15"/>
</g>
</g>
</svg>
